<?xml version="1.0" standalone="yes"?>
<svg xmlns="http://www.w3.org/2000/svg" width="1920" height="1080">
<path style="fill:#080b0b; stroke:none;" d="M0 0L0 1080L1920 1080L1920 0L0 0z"/>
<path style="fill:#272a2a; stroke:none;" d="M251 151C250.779 140.282 247.779 129.505 246 119C239.921 120.64 239.938 124.271 240.004 130C240.103 138.657 241.916 147.421 243 156C236.165 148.152 228.338 132.369 217 132C215.728 142.119 219.007 151.946 220.424 162C221.129 166.995 221.225 171.43 226 174C230.386 166.346 228.694 159.214 227 151C233.177 158.663 239.136 167.055 246.285 173.851C251.337 178.652 255.329 175.125 254.71 169C254.508 167.002 254.166 164.986 253.866 163C253.453 160.273 252.745 157.651 252 155C253.801 155.562 255.122 155.824 257 156C257.191 165.256 260.179 173.128 261.737 182C262.857 188.381 262 195.53 262 202L265 202C264.999 194.992 263.562 188.01 264.054 181.015C264.326 177.149 266.47 173.854 266.811 169.996C267.32 164.239 265.372 157.571 264 152C271.898 154.156 282.542 156.633 288 163C286.521 162.014 286.797 162 285 162L286 165L291 163L291 174L269 174L268 178L292 178C292 182.663 292.1 187.338 291.985 192C291.911 195.035 291.296 197.981 291.09 201C290.884 204.002 290.456 207.931 291.317 210.847C292.153 213.678 294.847 213.678 295.683 210.847C298.496 201.319 285.978 177.522 302 177L302 185C302.985 182.669 302.981 180.543 303 178C305.528 177.948 307.582 177.722 310 177C307.888 175.321 306.671 174.743 304 175L304 171C306.693 170.877 313.177 169.052 309 166C308.782 160.923 305.108 158.622 301 156.066C292.442 150.74 282.019 146.35 272 145C276.781 135.745 284.961 131.32 285 120L280 120C276.406 126.928 268.819 135.159 262 139C261.846 131.532 260.78 124.842 258 118C252.747 119.931 252.817 123.88 253.039 129C253.383 136.925 256.527 144.4 251 151M162 163L167 166C168.186 164.814 168.584 164.472 170 164C171.604 170.718 171.142 180.575 179 183C180.676 179.664 182.08 176.831 181.521 173C181.021 169.575 178.181 164.601 179.404 161.21C180.79 157.365 187.786 154.302 191 152C191 156.261 190.537 160.841 191.61 165C194.234 175.177 206.307 183.576 214.301 172.895C219.841 165.492 218.106 155.351 216.399 147C215.657 143.371 214.404 133.684 209.015 134.117C206.138 134.349 205.13 137.574 205.269 140.001C205.659 146.843 209.288 152.829 208.959 160C208.835 162.715 207.6 169.968 203.259 167.248C196.371 162.933 202.192 152.015 196 148C196.833 145.715 197.751 143.46 197.877 140.998C198.502 128.739 178.266 129.133 170 126.558C166.168 125.364 158.066 117.698 154.604 121.377C148.738 127.61 161.182 132.702 163.431 137.043C165.623 141.273 168.77 151.222 166.807 155.83C165.691 158.45 163.262 160.389 162 163M68 127C66.4706 129.149 65.6612 129.121 63 129C60.3461 143.295 65.8939 155.101 67 169C61.9089 163.895 57.0695 158.528 52.4383 153C47.6491 147.284 45.2103 141.857 37 143C37.0014 155.363 42.4112 165.974 44.5363 178C46.3419 188.219 45 199.637 45 210L47 210L47 190C48.3389 192.066 48.6348 192.525 51 193C51.6443 208.007 52.0242 222.93 52 238C51.9882 245.366 49.8709 252.797 52 260L54 260C55.6805 254.315 54.7209 248.792 54.1698 243C53.4841 235.795 53.356 228.232 53.0394 221C52.5219 209.183 55.7959 197.712 55.6566 186C55.5824 179.757 53.2591 173.103 52 167C59.3477 174.502 65.345 183.303 72.6651 190.772C75.1187 193.275 79.404 195.046 81.2539 190.851C84.5399 183.399 72.9999 170.537 81 166C81.063 173.05 81.1795 186.078 89 188C92.878 182.612 102.61 174.164 110 175.128C113.109 175.534 115.428 178.309 118 179.853C123.179 182.96 129.123 182.307 133.699 178.387C144.684 168.974 144.993 146.002 133.815 136.613C121.033 125.877 108.704 136.924 107.174 151C106.552 156.716 107.286 162.349 108 168C101.486 168.882 96.2057 172.212 90 174C89.9167 170.092 89.1785 166.718 88 163C94.6811 161.741 101.411 161.783 103 154C97.4204 154.004 92.442 154.877 87 156L86 147C94.4423 147 103.374 148.25 107 139C97.4937 136.386 88.3685 141.82 80 134C66.5013 139.292 83.0721 152.945 75 163C74.7158 156.399 72.2311 150.461 71.3002 144C70.4227 137.911 71.575 132.417 68 127M303.738 137.072C300.835 139.206 302.952 145.1 306.701 142.914C310.528 140.683 307.378 134.397 303.738 137.072z"/>
<path style="fill:#080b0b; stroke:none;" d="M173 137L176 152C181.721 149.902 186.974 146.369 190 141C184.637 138.988 178.677 137.764 173 137z"/>
<path style="fill:#272a2a; stroke:none;" d="M293.6 139.047C290.714 141.213 292.999 147.089 296.701 144.914C300.589 142.628 297.39 136.201 293.6 139.047z"/>
<path style="fill:#080b0b; stroke:none;" d="M120 157C118.866 153.413 118.297 149.754 118 146C112.917 150.977 114.535 161.124 117.674 166.995C119.648 170.689 123.343 174.113 127.815 172.253C137.359 168.283 134.426 151.295 129.362 145.133C124.528 139.252 120.126 142.566 120.005 149C119.954 151.665 120 154.335 120 157z"/>
<path style="fill:#272a2a; stroke:none;" d="M387 149C388.223 150.195 388.42 150.316 390 151C388.777 149.805 388.58 149.684 387 149M532 160C534.035 165.987 538.883 169.472 543 174L553 171C553.941 175.625 556.564 177.924 560 181C548.554 183.732 536.693 187.515 525 189C528.607 201.574 542.408 195.907 551 193C543.496 200.835 535.734 207.526 527 214C533.865 215.448 543.086 210.933 549 207.688C551.406 206.368 554.68 203.289 557.576 203.444C560.484 203.6 563.108 207.144 565 209C561.042 210.33 561.603 212.474 563 216C551.307 216 540.398 219.039 529 221.335C525.007 222.139 520.977 222.053 517 223C522.367 238.776 539.44 229.992 551 227C544.736 233.26 538.135 239.007 531 244.265C526.637 247.481 520.933 250.392 518 255C528.75 253.199 537.196 250.036 547 245L548 260C550.704 255.306 547.371 248.886 550.5 244C553.244 239.715 561.012 237.447 562 233C563.308 237.423 563.064 241.532 562 246C559.627 244.988 557.551 244.378 555 244C556.961 245.817 559.453 247.122 561.151 249.224C563.563 252.209 564.717 257.269 568.997 258.248C572.708 259.098 574.602 254.886 575.387 251.999C577.32 244.881 575.06 237.201 575 230C580.578 235.532 586.765 241.775 594 245C592.17 253.114 595.994 259.917 596 268C591.373 269.406 589.837 273.932 594.228 277.258C596.974 279.338 600.798 279.106 604 278.535C608.036 277.816 614.564 276.92 617.851 274.4C622.813 270.597 619.07 265.272 613.999 264.343C609.874 263.586 605.103 265.47 601 266C601 260.6 601.258 255.282 600 250C608.429 254.055 620.588 251.058 627 245C622.525 242.042 617.014 240.956 612 239.139C601.731 235.418 588.56 230.051 581 222C589.7 221.627 602.485 218.278 610 224C612.87 223.307 617.208 223.328 619.382 221.107C623.398 217.001 617.928 211.06 613.995 209.804C605.489 207.088 594.763 210.819 586 211L586 205L578 205L578 194C587.724 196.597 593.002 194.34 602 190.312C604.418 189.23 607.58 188.713 609.681 187.066C615.63 182.402 606.327 175.163 602 173.743C598.868 172.715 596.052 174.02 593 174.629C586.416 175.943 579.733 177.711 573 178C576.494 173.548 581.916 170.82 586.999 168.398C589.504 167.205 593.058 166.64 594.238 163.772C596.489 158.304 588.145 150.588 583 150.748C577.475 150.92 571.461 154.565 566 155.714C554.705 158.09 543.335 158.258 532 160M162 151L154.998 151.001C152.568 151.018 141.035 153.458 146.623 157.958C151.755 162.09 161.155 156.344 162 151M381 151C382.33 152.753 383.247 153.67 385 155C383.846 152.751 383.249 152.154 381 151M391 152C391.577 154.609 391.92 156.333 394 158C393.345 155.463 392.724 153.953 391 152M370 153C372.22 154.724 374.394 155.95 377 157C375.191 154.128 373.33 153.447 370 153M368 156C369.968 159.003 372.598 160.015 376 161C373.666 158.443 371.212 157.277 368 156z"/>
<path style="fill:#080b0b; stroke:none;" d="M558 170C566.07 171.844 571.119 171.316 575 163C569.248 163.502 561.336 164.912 558 170M294 165L294 176L302 176C301.692 170.38 299.597 166.585 294 165z"/>
<path style="fill:#272a2a; stroke:none;" d="M383 175C386.036 173.921 388.825 172.604 392 172C390.521 172.986 390.797 173 389 173C390.506 173.683 391.315 173.826 393 174L389 176C392.16 176.972 395.667 176.068 399 176C396.023 168.147 387.582 169.219 383 175z"/>
<path style="fill:#080b0b; stroke:none;" d="M576 189C580.532 188.065 582.719 188.938 585 193C588.078 190.709 589.761 188.641 591 185C586.414 185.197 579.079 185.34 576 189z"/>
<path style="fill:#272a2a; stroke:none;" d="M397 189C398.799 195.114 402.775 200.532 406 206C406.406 204.341 406.309 203.758 406 202L418 219C418.323 215.248 415.372 212.06 413.333 209C408.666 201.995 403.172 194.696 397 189M380 191C380.014 196.19 380.7 200.976 382 206L380 206C381.862 212.752 385.542 218.585 391 223C389.921 219.964 388.604 217.175 388 214C389.926 216.216 391.391 217.694 394 219C392.252 215.229 389.32 212.516 387.144 209C383.999 203.918 382.271 196.92 382 191L380 191M413 192C417.613 198.633 421.912 205.002 426 212C426.409 209.726 425.788 208.219 425 206C427.708 209.804 429.652 213.976 432 218C433.779 207.377 421.623 195.997 413 192M439 193C440.748 197.804 443.577 202.059 445 207L441 205C441.766 207.804 442.77 210.365 444 213L446 210C446.842 212.994 447.584 215.917 448 219C451.187 211.331 444.729 198.106 439 193M389 194C390.021 198.05 391.843 201.439 394 205C394.687 200.876 391.858 196.828 389 194M407 194L413 204C414.819 202.636 414.031 202.508 416 203C414.104 198.615 411.385 195.896 407 194M432 195C433.648 199.353 436.374 206.113 440 209C439.017 203.313 436.48 198.659 432 195z"/>
<path style="fill:#080b0b; stroke:none;" d="M559 201L566 201L566 195C562.834 196.48 561.049 198.168 559 201z"/>
<path style="fill:#272a2a; stroke:none;" d="M369 198C365.976 211.196 379.13 228.409 391 233C388.521 228.4 383.689 225.959 380.329 221.985C374.745 215.382 371.375 206.595 371 198L369 198z"/>
<path style="fill:#080b0b; stroke:none;" d="M405.333 200.667C405.278 200.722 405.222 201.778 405.667 201.333C405.722 201.278 405.778 200.222 405.333 200.667z"/>
<path style="fill:#272a2a; stroke:none;" d="M429 200C430.919 208.078 434.419 216.065 437 224C439.339 217.407 433.529 204.846 429 200M452 202C455.924 209.497 457 215.599 457 224L459 224C458.999 216.663 459.198 206.096 452 202M363 205C363.1 209.707 364.097 213.7 366 218C367.238 213.552 365.028 209.753 367 205L363 205M450 208C450.94 214.393 452.546 219.505 451 226C457.025 221.521 455.643 214.35 454 208C453.317 209.506 453.174 210.315 453 212C452.03 210.4 451.28 209.337 450 208M379 216C380.816 219.241 382.317 220.421 386 221C383.759 219.085 381.629 217.318 379 216M360 217C359.438 218.8 359.176 220.122 359 222L361 222C360.912 220.036 360.779 218.769 360 217M371 222C373.801 230.255 381.289 237.64 390 239C384.383 233.136 377.641 226.678 371 222M93 229C97.7453 228.485 100.961 226.665 104 223C99.2017 223.894 93.9788 223.363 93 229M407 223C407.432 225.978 408.225 227.558 410 230L401 224C401.949 227.087 401.982 228.935 401 232L404 233C403.139 235.033 402.776 235.788 401 237L404 242L400 241L402 247C396.412 246.954 390.522 246.792 385 246C385.768 247.314 385.686 247.232 387 248C384.802 249.332 384.618 248.86 385 251C375.173 257.897 379.008 267.83 384.309 276C386.282 279.042 388.143 282.818 392.015 283.643C399.332 285.202 402.621 280.417 407 276C407.406 278.093 407.217 278.02 409 279C404.183 281.928 402.125 285.896 400 291L401 285C394.834 287.392 384.967 290.599 383.336 297.986C382.553 301.532 384.767 305.416 385 309C387.092 308.594 387.02 308.783 388 307C390.971 315.008 395.233 319.08 404 317L402 314C407.419 315.666 412.403 316.96 418 318C416.562 320.042 415.629 321.597 415 324C422.067 319.518 427.637 308.933 432.224 302C434.495 298.567 436.363 296.184 436 292C441.111 292.438 442.761 289.169 445 285C442.908 285.406 442.98 285.217 442 287L437 286L440 290C437.356 289.371 435.624 289.158 434 287C431.673 291.842 431.462 297.797 430 303C427.575 294.778 437.436 280.682 425 279C425.878 281.017 426.652 282.232 428 284L421 280C419.114 282.235 417.569 283.619 415 285C416.186 283.814 416.528 283.416 417 282L410 283C411.479 282.014 411.203 282 413 282C412.338 280.603 412.036 280.187 411 279C413.108 277.569 410.798 276.841 409 276C410.478 275.014 410.203 275 412 275C410.051 273.427 408.412 272.709 406 272C407.223 273.195 407.42 273.316 409 274C404.233 273.926 401.174 271.411 398 268C402.923 268.383 407.07 271.258 412 272C411.528 270.584 411.186 270.186 410 269L412 269C408.935 264.685 404.873 261.568 401 258C405.024 258.318 409.518 258.584 412.715 261.317C417.495 265.404 420.905 273.002 428 272C428.251 273.451 428.315 273.752 429 275L433 273L431 279C435.008 276.985 436.067 274.274 437 270C437.562 271.801 437.824 273.122 438 275C445.021 274.382 447.499 271.969 448 265C446.339 265.208 446.46 265.495 446 264C443.794 265.532 441.946 267.138 440 269C441.555 266.683 446.382 258.955 449 260L452 258L450 270C456.603 265.302 455.642 252.313 457 245C452.686 246.01 445.573 249.281 441.3 246.999C437.894 245.18 436.355 241.03 433 239L434 242C427.011 236.171 423.139 241.432 422 249C420.68 243.596 423.357 239.609 426 235C415.521 235.34 413.355 243.562 406.699 249.701C403.923 252.26 400.165 252.958 397.108 255.05C394.494 256.839 393.095 259.722 391 262C394.065 255.052 399.279 253.397 404.981 249.073C408.96 246.056 410.282 241.848 413.443 238.233C416.032 235.272 419.151 234.714 421 231L416 235L418 231C414.338 228.365 410.938 225.155 407 223M450 228L449 234C450.455 232.079 451.203 230.289 452 228L450 228M371 261C370.672 258.132 369.716 255.424 373 255C371.337 253.497 370.104 252.801 368 252C366.495 255.589 366.173 258.19 367 262C362.002 258.181 362.599 255.75 366 251C360.389 250.907 358.228 245.778 365 246C363.834 243.299 363.493 241.885 364 239C358.239 241.753 357.055 245.947 357 252C355.737 247.687 355.705 237.775 361.99 236.921C368.005 236.105 368.597 246.308 368 250C369.801 250.562 371.122 250.824 373 251C371.687 247.394 371.157 243.587 369.767 240.001C366.624 231.895 359.333 231.887 355.653 240.001C352.747 246.406 354.775 252.795 357.053 259C358.095 261.836 359.353 267.096 363.003 267.534C366.452 267.948 368.361 262.593 371 261M1604 236.428C1588.62 238.63 1573.08 239.924 1558 243.884C1517.25 254.584 1478.86 275.344 1448 304.089C1424.74 325.754 1406.41 351.658 1392.25 380C1342.94 478.671 1368.52 605.132 1450 678.83C1505.52 729.047 1580.17 751.786 1654 742.714C1732.59 733.057 1806.03 684.795 1843.97 615C1868.21 570.403 1878.37 518.468 1874.91 468C1867.14 354.646 1773.86 255.999 1662 239.83C1643.4 237.141 1622.87 233.726 1604 236.428M319 275C319.779 273.231 319.912 271.964 320 270C320.986 271.479 321 271.203 321 273C323.296 270.766 323.77 269.198 324 266C327.78 274.944 329.167 285.629 332 295C333.342 291.526 331.852 288.531 331.12 285C330.03 279.747 329.672 274.317 329 269C331.089 273.854 331.944 279.007 333.597 284C338.229 297.986 342.83 311.749 346.605 326C349.19 335.758 353.08 345.153 355.406 355C359.12 370.721 360.369 386.985 362.285 403C363.219 410.803 365 418.113 365 426C368.725 422.338 367.251 418.806 367.039 414C366.667 405.557 364.419 397.357 364.039 389C362.711 359.745 352.459 331.98 344.572 304C340.696 290.252 333.326 274.414 336 260C332.986 254.413 340.31 250.231 345 249C336.715 245.565 330.896 255.939 325.914 261.025C323.784 263.198 320.962 265.298 319.742 268.168C318.841 270.288 319.02 272.752 319 275M264 249L259 253C255.922 249.482 250.926 251.961 247 253C245.942 256.582 244.089 257.974 241 260C241 261.797 241.014 261.521 242 263C236.411 266.624 242.624 272.857 238 276C238.406 278.092 238.217 278.02 240 279L239 283C248.054 281.628 253.01 272.272 262 270C259.5 272.239 258.511 273.679 258 277C261.913 276.221 265.241 274.124 269.039 273.299C272.523 272.542 276.451 273 280 273C278.551 277.817 274.189 278.532 271 282L279 284L279 282C281.981 282.522 283.289 282.34 286 281C288.683 285.518 292.898 287.957 296.541 291.594C301.707 296.751 305.516 303.924 307 311C301.242 314.175 302.896 320.698 307.189 324.772C310.315 327.737 315.029 326.398 317.722 328.912C319.884 330.93 320.212 335.069 321.285 337.714C325.255 347.499 330.532 363.182 325.587 373.576C323.863 377.2 319.976 379.349 317.394 382.286C314.329 385.77 312.773 390.509 312 395C315.22 392.116 317.11 388.213 320.079 385.04C323.648 381.227 328.699 378.214 330.347 372.996C332.202 367.124 329.973 361.65 328.679 356C327.553 351.084 327.674 345.895 326.468 341.015C325.513 337.149 323.011 333.899 322.062 329.996C320.778 324.708 325.416 320.253 323.011 315.005C321.005 310.628 316.716 310.076 313.994 306.687C311.992 304.194 311.361 300.76 309.79 298C307.055 293.196 303.606 288.911 301 284C306.164 282.888 301.84 276.851 302 273L304 276C304.685 274.752 304.749 274.452 305 273C309.091 273.828 311.657 273.615 313 278C314.666 274.29 314.916 270.051 315 266C308.419 266.437 290.425 278.113 289 266C285.067 264.905 282.184 262.467 278 262C276.388 256.85 272.118 254.12 267 253C268.186 251.814 268.528 251.416 269 250C267.024 249.954 265.823 249.745 264 249z"/>
<path style="fill:#080b0b; stroke:none;" d="M359 251L360 255C360.393 253.076 360.146 252.64 359 251M357 253C357.627 256.075 358.281 257.427 361 259C359.809 256.793 358.643 254.886 357 253M386 254L385 264L381 262C385.591 269.103 387.713 258.085 386 254M422 254C422.334 257.826 422.819 261.611 426 264C425.434 260.172 424.577 256.924 422 254M434 256C435.608 258.573 437.056 259.29 440 260C438.104 257.98 436.585 257.005 434 256M430 259C430.044 262.959 430.826 266.238 432 270C433.451 266.444 432.296 262.754 432 259L430 259z"/>
<path style="fill:#272a2a; stroke:none;" d="M354 260C347.298 268.025 339.794 270.074 342 282L346 282C344.87 283.4 343.782 284.416 343 286C347.839 284.629 350.025 281.486 352 277C351.992 282.45 348.488 285.383 344 288L348 305C353.188 301.334 349.63 295.238 350.505 290C351.757 282.499 356 275.874 357 268C353.428 269.849 351.552 272.938 349 276C350.412 270.775 354.695 265.595 354 260M517 296C518.661 295.387 519.483 294.957 521 294C523.027 295.508 524.776 294.091 527 293C525.814 294.186 525.472 294.584 525 296C533.291 291.6 542.554 281.545 546.557 273C548.861 268.083 544.849 259.445 538.317 261.711C535.479 262.696 534.927 268.589 533.673 271C529.048 279.888 522.245 287.503 517 296M560 263C561.845 268.062 565.644 281.841 561.397 286.297C558.802 289.019 553.398 289.532 550 291C547.171 286.368 543.27 284.569 538 286C538.331 292.042 534.797 297.027 531.681 302C525.87 311.271 517.246 319.956 513 330C516.073 329.096 518.382 327.848 521 326L521 328C525.901 324.935 529.919 321.07 534 317C532.431 323.591 533.255 330.287 532.961 337C532.786 340.999 531.572 344.988 532.264 349C532.994 353.238 535.718 356.809 536.61 361C537.627 365.772 537 371.144 537 376C537 380.93 536.243 386.065 536.434 390.941C536.502 392.675 538.135 395.659 539.977 393.338C541.759 391.092 540.153 386.588 540.039 384C539.723 376.759 538.951 368.064 540.705 361C541.469 357.924 543.076 355.125 543.661 352C544.188 349.183 543.488 345.836 544.988 343.267C546.442 340.78 549.696 340.56 551.711 338.658C555.101 335.457 557.353 330.322 558.91 326C560.58 321.365 563.457 314.248 561.142 309.44C559.752 306.553 554.723 302.387 551.693 305.619C549.554 307.9 551.094 313.126 550.829 316C550.024 324.751 547.793 332.744 545 341C542.763 333.431 544.288 324.836 543.981 317C543.866 314.074 542.297 310.873 542.823 308C543.656 303.445 548.018 299.189 550 295C554.42 298.528 557.52 299.002 563 298L563 333C563 337.227 562.048 341.842 562.444 346C562.961 351.437 568.031 354.802 568.853 360.015C572.012 380.041 571 400.782 571 421C571 431.344 568.539 441.801 569.04 452C569.152 454.28 570.415 461.7 574.415 458.914C576.587 457.401 576.036 453.256 575.985 451C575.828 443.996 574.568 436.987 574.089 430C573.612 423.022 574.267 415.986 573.961 409C573.461 397.582 572.36 386.444 573.714 375C574.71 366.592 575.344 360.1 582 354L582 352C578.287 347.1 578.005 336.161 578 330L575 330C575 322.285 574 314.715 574 307C574 304.017 573.352 300.021 574.603 297.228C576.723 292.496 587.239 293.557 586.534 287C585.892 281.028 578.237 281.029 574 282C574 273.234 573.519 256.812 560 263z"/>
<path style="fill:#080b0b; stroke:none;" d="M1764 535L1745 535C1745 510.018 1750.07 480.218 1736.54 458C1733.7 453.343 1730.27 449.072 1726 445.669C1722.62 442.986 1719.08 440.769 1715 439.359C1690.54 430.912 1669.98 448.347 1662.36 471C1659.38 479.828 1660 488.816 1660 498L1660 536L1641 536L1641 429L1659 429L1659 434C1668.74 428.81 1675.13 419.593 1686 415.468C1714.54 404.638 1739.95 425.122 1754 448C1761.57 441.561 1766.19 431.958 1774 425.301C1794.16 408.111 1817.76 411.17 1839 424C1834.08 402.721 1822.68 382.024 1810.67 364C1751.31 274.97 1631.67 238.2 1533 280.427C1470.62 307.124 1421.12 361.482 1402.43 427C1395.17 452.424 1392.89 478.641 1394.04 505C1395.11 529.366 1401.75 554.452 1410.8 577C1420.43 600.989 1434.43 624.037 1452.09 643C1480.84 673.88 1516.43 697.192 1557 709.279C1646.2 735.856 1748.56 702.059 1803.85 627C1829.09 592.736 1845.66 550.696 1848.04 508C1848.74 495.419 1851.4 481.038 1846.55 469C1836.51 444.121 1808.16 425.376 1784 445.329C1779.36 449.164 1775.53 453.839 1772.45 459C1759.31 481.053 1764 510.394 1764 535z"/>
<path style="fill:#272a2a; stroke:none;" d="M94 269L94 273C100.318 271.224 106.423 270.018 113 270L113 265C106.573 265.963 100.595 269.44 94 269z"/>
<path style="fill:#080b0b; stroke:none;" d="M435 265L434 270C435.475 268.065 435.791 267.307 435 265z"/>
<path style="fill:#272a2a; stroke:none;" d="M366 295C366.844 291.485 365.907 287.675 366.428 284C367.274 278.041 369.762 272.794 371 267C363.393 271.192 362.969 287.816 366 295M340 271C341.457 269.896 341.897 269.457 343 268C340.876 268.899 340.899 268.876 340 271z"/>
<path style="fill:#080b0b; stroke:none;" d="M390 268C390.584 271.202 391.258 273.184 394 275C393.006 272.288 391.885 270.188 390 268z"/>
<path style="fill:#272a2a; stroke:none;" d="M414 273C415.103 274.456 415.544 274.897 417 276C416.101 273.877 416.124 273.899 414 273M359 276C357.371 282.595 355.142 289.177 355 296L358 295C353.953 303.41 356.842 315.766 357.025 324.985C357.088 328.183 356.397 332.804 358.182 335.614C359.842 338.228 363.369 339.61 366 341C365.741 334.968 364.303 329.029 364.039 323C363.812 317.798 364.885 312.112 363.965 307C363.106 302.23 360.766 297.83 359.924 293C358.991 287.651 361.623 280.544 359 276M439 282C444.056 281.723 446.975 280.059 450 276C446.082 277.535 441.923 278.966 439 282M234 303C240.421 303.133 246.562 304.947 253 305C249.854 302.422 245.946 301.814 242 301C246.824 298.781 250.965 300.76 256 300C254.752 299.315 254.452 299.251 253 299L258 296L254 294C258.815 293.694 263.871 293.246 267.847 290.126C270.081 288.373 271.266 285.188 267.847 283.951C264.313 282.673 260.852 285.686 258 287.336C250.486 291.682 238.975 295.691 234 303M601 301L601 343C595.775 342.985 591.124 341.51 586 341C591.007 348.108 599.465 353.511 603.571 361.166C608.843 370.994 607 383.25 607 394L610 394C610 383.424 609.407 372.453 611.263 362C612.061 357.508 614.532 353.635 614.907 349C615.716 338.984 614.115 328.933 613.17 319C612.5 311.967 614.421 304.411 611 298L615 300C623.178 297.764 621 314.927 621 320L623 320C623 314.559 621.18 305.045 624.179 300.299C625.785 297.756 629.472 296.425 632 295C627.585 278.099 610.308 287.126 599 289.964C595.2 290.917 586.223 291.282 583.748 294.588C581.999 296.924 584.583 299.81 586.306 301.275C591.033 305.298 595.851 302.405 601 301z"/>
<path style="fill:#080b0b; stroke:none;" d="M405 298L410 295C410.326 300.911 414.056 305.041 417 310C419.238 309.536 421.109 308.751 423 310C425.832 307.951 427.52 306.166 429 303C422.032 305.87 418.789 300.511 412 300C412.836 294.774 415.359 294.698 420 296C415.472 290.056 408.432 291.453 405 298z"/>
<path style="fill:#272a2a; stroke:none;" d="M449 292C446.559 293.878 445.104 295.125 444 298C445.267 299.543 445.489 300.048 446 302L450 301C450 304.465 451.634 314.128 447.682 315.883C443.559 317.713 436.156 309.158 433 307L432 311C439.622 315.613 438.223 329.222 440 337C433.711 338.082 433.762 343.736 435 349C432.091 344.43 433.058 341.8 435 337C428.018 341.578 430.701 354.146 440.011 352.753C447.083 351.695 445.692 343.925 451 341L451 332L454 337C455.248 335.397 456.084 333.832 457 332C458.528 335.18 459.892 337.297 463 339L462 344C464.888 344 464.036 346.426 464 349C463.938 353.468 462.118 357.534 462 362C466.453 355.752 468.493 343.865 464.513 337C460.973 330.895 454.563 327.466 454 320L457 323L460 321C456.882 313.529 461.292 304.085 456.156 297.375C454.348 295.013 451.492 293.513 449 292z"/>
<path style="fill:#080b0b; stroke:none;" d="M399 300C401.14 300.41 401.962 299.969 404 299C401.86 298.59 401.037 299.032 399 300z"/>
<path style="fill:#272a2a; stroke:none;" d="M576 302C577.325 307.004 578.546 311.818 579 317C579.358 321.087 579.282 327.249 582.009 330.566C584.089 333.096 587.995 333.395 590.062 330.681C592.346 327.682 591.704 323.396 590.985 320C589.217 311.664 584.91 303.725 576 302M352 304C347.731 310.673 352.479 318.248 355 325C356.21 321.662 355.619 317.601 356 314C354.584 314.472 354.186 314.814 353 316C354.467 311.29 355.641 307.891 352 304M215 373C216.769 368.783 216 363.541 216 359C219.621 365.785 219.169 374.515 220.209 382C221.955 394.561 223.805 407.652 227 420C228.767 415.073 226.522 408.171 225.95 403C225.355 397.625 226.499 392.283 225.79 387C224.872 380.153 222.473 373.617 221.26 366.911C219.523 357.304 221.618 347.275 223.87 338C226.585 326.823 229.955 315.159 237 306C228.412 306.977 226.667 316.001 223.961 323C217.645 339.334 208.995 355.405 215 373M238.667 306.333C238.222 306.778 239.278 306.722 239.333 306.667C239.778 306.222 238.722 306.278 238.667 306.333z"/>
<path style="fill:#080b0b; stroke:none;" d="M396 309L396 312C404.425 312 413.417 311.756 421 316C421.225 314.535 421.841 313.161 420.363 312.078C418.744 310.892 415.889 311.344 414 311.107C407.998 310.356 402.065 309.125 396 309M437 313L441 326C444.115 321.207 440.98 316.226 437 313z"/>
<path style="fill:#272a2a; stroke:none;" d="M386 314C389.803 322.533 398.245 328.655 405 319C402.077 319 398.81 319.361 396 318.412C392.398 317.196 389.82 314.768 386 314M368 320L369 323C366.145 325.713 368.213 329.046 371 331L370 326L374 329C373.201 324.872 371.731 322.048 368 320M411 324L411 329L413 329L413 324L411 324M369 332L369 336C370.797 336 370.522 335.986 372 335L372 333L371 332L369 332M234 342L234 352C247.959 351.712 261.462 347.151 275 353C274.857 349.668 274.995 344.235 272.4 341.742C269.869 339.31 265.194 340.001 262 340C252.371 339.996 243.404 339.85 234 342M359 340C361.654 354.085 364.58 368.092 367.545 382C368.575 386.835 367.094 391.746 370 396C372.544 389.971 372.72 382.517 373 376L375 376C375 387.157 370.186 400.454 374 411C378.824 407.447 382.291 402.765 384 397L377 394C379.786 394.313 382.288 395.242 385 396C386.647 388.021 390.194 380.045 391 372C388.034 372.597 385.87 373.044 383 372L379 376C381.541 372.395 384.395 369.541 388 367C386.814 368.186 386.472 368.584 386 370C389.7 369.903 391.669 368.929 395 370C394.232 368.686 394.314 368.768 393 368L393 366C395.38 364.334 395.682 362.877 396 360C395.315 361.248 395.251 361.548 395 363C394.61 360.779 394.665 359.246 395 357C391.39 357.865 388.297 359.315 385 361C388.187 357.98 390.846 356.343 395 355C394.161 353.657 393.492 351.309 392 350.5C386.691 347.62 378.772 353.511 377 358C377.649 351.437 384.918 349.459 386 343C382.616 344.14 379.983 346.061 377 348L380 340C371.967 342.71 372.278 346.269 372 354C367.45 348.9 365.408 343.116 359 340M467 351C467.005 357.686 468.76 362.796 471 369C474.158 363.458 470.86 356.85 470 351L467 351M235 365C240.54 364.762 245.56 362.61 251 362.104C254.627 361.767 258.361 362 262 362C265.196 362 269.74 362.761 272.682 361.258C275.547 359.793 275.172 355.688 272.682 354.028C270.332 352.461 266.671 353.001 264 353C257.93 352.997 252.041 353.697 246 354.036C243.175 354.194 238.899 354.258 236.603 356.164C234.284 358.091 235.002 362.333 235 365z"/>
<path style="fill:#080b0b; stroke:none;" d="M368 353C369.923 359.741 371.695 365.902 372 373C378.999 368.462 372.741 357.064 368 353z"/>
<path style="fill:#272a2a; stroke:none;" d="M372 363L372 366C372.696 364.446 372.696 364.554 372 363M236 369C236.378 371.551 236.988 373.627 238 376C250.688 373.065 261.941 372 275 372L275 366C261.555 366 249.222 366.536 236 369M279 389C278.363 385.896 277.9 378.16 275.397 376.179C273.269 374.495 269.525 374.978 267 375.004C260.446 375.071 253.411 376.139 247 377.51C244.757 377.99 241.388 378.433 239.603 379.988C237.034 382.226 237.794 389.061 240.564 390.933C243.285 392.772 249.001 390.879 252 390.421C261.442 388.977 269.371 387.212 279 389M424 410C424.615 407.175 424.344 404.873 424 402L428 403C427.551 401.244 427.345 400.607 428 399C425.577 392.329 429.98 383.167 430 376C422.398 378.908 424.305 390.4 421.377 397C420.143 399.782 416.626 403.416 417.712 406.697C418.536 409.187 421.847 409.525 424 410M421 381C417.848 389.171 413.765 398.24 413 407C417.891 401.943 423.488 387.941 421 381M485 397C487.985 399.778 490.954 400.74 495 401C492.076 398.423 488.828 397.566 485 397M496 401C497.834 402.801 500.713 404.581 501.597 407.093C502.615 409.985 500.467 412.886 498.67 414.956C494.143 420.171 486.616 422.105 480 423L480 425C487.633 424.821 495.587 421.675 500.811 415.957C506.596 409.625 504.402 402.7 496 401M608 401C606.714 405.577 605.921 409.303 607 414C612.072 411.203 611.197 406.03 610 401L608 401M404 441C412.053 436.582 417.554 420.551 420 412C413.446 412.521 414.099 416.888 411.73 421.911C408.691 428.353 404.738 433.638 404 441M1613 413L1613 551C1614.55 547.302 1614 542.983 1614 539L1614 516L1614 444C1614 434.94 1616.51 421.357 1613 413M506 425C506.558 430.066 507.267 434.176 509 439C510.304 435.323 508.971 427.583 506 425M527 453C532.183 446.832 538.392 438.344 536 430C528.007 433.94 527.022 444.964 527 453M485 431C488.816 436.418 493.944 442.176 500 445C496.198 439.348 491.256 433.867 485 431z"/>
<path style="fill:#080b0b; stroke:none;" d="M530 444C533.656 440.809 535.185 436.735 536 432C531.398 434.475 530.433 439.036 530 444z"/>
<path style="fill:#272a2a; stroke:none;" d="M215 435C212.301 442.802 204.393 451.106 209 459C209.699 456.711 209.703 454.277 210.567 451.999C212.645 446.52 217.468 441.064 215 435M413 437C408.836 442.975 413.971 450.333 413.971 457C413.97 465.369 406.714 471.896 407.152 480C407.399 484.576 411.006 488.088 413 492C419.002 486.837 418.926 477.541 412 473C414.156 478.936 416.181 482.538 415 489C412.99 486.349 409.521 483.343 408.816 480C407.577 474.127 414.571 467.684 415.66 462C416.821 455.937 415.293 450.727 414.259 444.911C413.768 442.145 414.094 439.608 413 437M1460.02 437.859C1447.25 443.117 1455.43 462.12 1468 457.258C1480.97 452.235 1472.36 432.774 1460.02 437.859M1494 437L1494 458L1504 458L1504 456L1496 456L1496 449L1505 449L1505 446L1496 446L1496 440L1505 440L1505 437L1494 437M1508 437L1508 458L1511 458L1511 444C1513.96 448.832 1516.33 456.128 1522 458L1522 437L1519 437L1519 451C1516.2 446.424 1513.27 441.86 1511 437L1508 437M1536 437L1536 458L1538 458L1538 444L1545 454C1546.92 451.084 1548.62 448.208 1550 445C1551.26 449.261 1551 453.577 1551 458L1554 458L1554 437C1549.41 438.566 1547.39 443.596 1546 448L1544 448C1542.34 444.14 1540.19 440.583 1538 437L1536 437M1574 437L1574 440L1579 440L1579 458L1582 458L1582 440L1587 440L1587 437L1574 437M1479 438L1479 458L1481 458L1481 451C1486.52 450.821 1495.1 445.546 1488.43 439.742C1485.92 437.565 1482.08 438.009 1479 438M1565 438C1561.8 444.079 1559.01 451.185 1558 458C1561.99 457.149 1561.49 451.222 1565.97 451.222C1570.01 451.222 1569.91 457.174 1574 458L1567 438L1565 438z"/>
<path style="fill:#080b0b; stroke:none;" d="M1461.04 440.746C1452.38 444.147 1457.44 458.001 1466 455.214C1476.15 451.908 1470.87 436.889 1461.04 440.746M1481 440L1481 449C1488.98 448.09 1489.03 440.905 1481 440M1565 444L1564 448C1567.02 447.349 1567.09 446.086 1565 444z"/>
<path style="fill:#272a2a; stroke:none;" d="M504 446C502.55 447.608 501.949 448.064 500 449C500.004 453.682 500.607 457.534 502 462C504.493 458.351 505.244 450.234 504 446M543 465C544.84 463.283 545.349 462.434 546 460C547.023 461.534 546.805 461.402 548 462C549.043 459.904 549.603 458.301 550 456C545.963 457.986 544.267 460.737 543 465M312 472L312 474C316.691 474.955 324.915 477.393 329 475C332.1 479.953 336.507 483.429 340 488C336.003 485.195 332.61 481.081 328 479.242C325.127 478.096 321.979 478.43 319 477.732C313.71 476.493 310.281 474.875 305 477C299.383 469.339 295.761 481.206 296 486C301.754 489.204 307.017 493.203 313 496C308.23 495.18 304.365 492.04 300 490C300 491.797 300.014 491.521 301 493L294 488L296 493C293.979 492.119 292.146 491.504 290 491C289.623 494.156 287.061 497.811 288.238 500.96C289.575 504.539 293.979 506.488 296.826 508.671C300.196 511.254 301.941 513.935 303 518C296.658 515.264 291.358 510.639 285 508C288.858 515.621 297.605 520.774 303.582 526.71C307.171 530.274 307.897 535.876 310.765 539.985C315.659 546.997 323.11 547.995 331 548L331 546C328.035 545.998 324.867 546.247 322 545.347C305.658 540.219 309.287 518.706 306 506C309.308 509.755 312.401 513.376 317 515.597C320.454 517.266 324.452 517.618 327.83 519.418C331.166 521.196 333.608 524.231 337.001 526.025C345.643 530.597 355.598 533.228 362.787 540.325C370.606 548.043 367.59 560.129 373.125 568.895C376.836 574.774 384.063 574.413 390 573C386.467 571.518 382.471 572.498 379.019 570.566C371.708 566.476 371.384 555.345 370 548C372.745 550.902 373.086 554.432 377 556L376 554C379.627 556.096 382.503 559.027 386 561.28C391.991 565.139 398.113 567.494 403 573C399.431 572.164 396.416 570.283 393 569C394.834 572.13 397.996 573.949 400.009 577.019C401.7 579.597 402.749 584.375 406.173 585.248C409.259 586.036 411.538 582.768 411.272 579.996C410.917 576.277 407.964 573.709 405 572C409.076 572.733 410.606 575.756 413 579C421.31 574.373 431.035 564.466 441 566L438 562C443.404 565.89 446.278 570.256 446 577C448.557 577.754 450.369 578.24 453 578C453.499 584.263 455.888 590.108 461 594C458.895 583.154 453.346 577.293 448 568C451.002 571.145 453.55 574.413 456 578C457.249 571.031 452.492 563.564 446.999 559.638C439.403 554.209 428.982 556.068 421 551.157C410.527 544.714 400.971 535.202 391 527.846C385.069 523.47 380.67 519.185 373 519C374.679 523.032 376.467 527.621 380.105 530.297C385.742 534.444 392.491 535.056 398 540C389.888 535.122 381.03 533.745 375 526C374.731 528.022 375.192 529.043 376 531C373.075 527.557 370.866 524.478 370 520L372 524C372.89 520.757 371.241 518.048 370 515L374 516C371.711 513.014 369.187 510.997 366 509L366 511C353.854 501.394 340.724 500.268 327.015 494.525C321.461 492.198 317.564 487.352 312 485C317.721 485.715 322.658 490.466 328 492.772C339.585 497.771 351.606 500.623 363 506C357.529 494.436 348.122 482.074 337.996 474.236C334.644 471.642 330.358 467.9 326 467.371C321.187 466.787 316.105 469.902 312 472M1474 469L1474 490L1477 490L1477 483C1480.17 485.464 1482.1 488.784 1486 490C1484.99 487.415 1484.02 485.896 1482 484C1489.23 475.454 1484.1 469.036 1474 469M1495 469C1493.06 476.118 1489.7 482.82 1488 490C1491.61 488.992 1492.37 483.435 1496.04 483.435C1499.93 483.435 1500.41 488.951 1504 490C1503.07 483.795 1500.41 472.572 1495 469M1508 469L1508 472L1517 472C1514.34 478.17 1510.03 483.58 1508 490L1522 490L1522 487L1513 487C1515.66 480.83 1519.97 475.42 1522 469L1508 469M1533 469L1533 490L1543 490L1543 487L1536 487L1536 469L1533 469M1560 469C1556.85 475.746 1554.39 482.948 1552 490C1555.69 488.807 1556.4 486.71 1557 483L1564 483C1564.6 486.71 1565.31 488.807 1569 490C1566.72 483.265 1564.79 474.319 1560 469M1460 470L1460 490C1462.67 489.968 1465.53 490.131 1467.77 488.397C1472.07 485.063 1471.29 479.506 1467 477C1468.09 471.104 1465.44 470.065 1460 470M1527 470L1527 490L1529 490L1529 470L1527 470M1547 470L1547 490L1549 490L1549 470L1547 470M1572 470L1572 490L1574 490L1574 476C1577.44 480.733 1579.76 487.125 1585 490L1585 470L1583 470L1583 483C1579.54 479.331 1577.35 474.456 1575 470L1572 470z"/>
<path style="fill:#080b0b; stroke:none;" d="M1462 472L1462 475L1465 475L1465 472L1462 472M1477 472L1477 481C1484.51 479.828 1484.51 473.172 1477 472z"/>
<path style="fill:#272a2a; stroke:none;" d="M442 497C443.435 495.551 444.115 494.778 445 493C434.088 498.524 447.227 505.351 451 510C454.848 506.274 459.626 502.61 463.035 498.544C468.293 492.273 471.37 485.278 478 480C475.32 475.188 470.233 476.234 466.015 479.029C458.867 483.765 457.587 493.072 449 496C454.575 491.854 456.32 487.3 460.495 482.093C463.024 478.94 466.825 477.392 469 474C456.814 478.47 454.106 491.775 442 497M443 492L448 489L447 493C453.991 488.838 456.33 480.741 463 476C452.398 472.239 445.537 483.89 443 492M468 503C469.922 502.099 469.999 501.924 471 500C473.752 503.811 474.096 507.619 475.52 512C478.418 520.912 482.835 534.322 490.185 540.505C500.241 548.964 514.298 544.113 525 550C526.994 545.656 530.895 544.115 535 542C535.391 544.346 546.01 546.878 549 548C550.449 541.886 553.64 536.22 554.674 530C557.519 512.898 550.753 495.767 536.996 485.239C519.434 471.799 495.775 471.375 479.015 485.754C473.707 490.307 468.777 495.842 468 503M565 492C571.33 487.69 577.132 485.465 583.995 482.286C585.784 481.457 589.544 479.772 589.079 477.215C588.442 473.71 582.777 475.983 581 476.825C574.518 479.895 568.037 485.488 565 492z"/>
<path style="fill:#080b0b; stroke:none;" d="M1495 476C1495.21 478.739 1495.3 479.422 1498 480C1497.22 477.868 1496.87 477.229 1495 476M1560 476L1559 480L1562 480C1561.44 478.248 1561.08 477.458 1560 476M515 477C516.723 482.365 520.366 487.523 521.428 493C522.223 497.095 520.818 500.887 522 505C526.312 502.62 525.81 499.449 525 495C523.81 497.802 523.886 500.516 522 503C524.405 494.863 522.279 482.169 515 477M575 482C579.373 483.213 584.225 480.148 588 478C583.156 476.129 579.061 479.558 575 482M1462 478L1462 487C1468.98 485.886 1468.98 479.114 1462 478z"/>
<path style="fill:#272a2a; stroke:none;" d="M212 479C210.371 487.792 215.839 493.293 224 496L223 494C234.164 498.649 243.905 506.401 255 511C251.773 505.253 244.481 501.751 239 498.343C229.646 492.528 220.407 486.052 212 479M352 483C357.269 488.448 364.965 489.118 369.776 496.015C372.019 499.229 373.842 503.143 374.621 507C375.449 511.095 374.854 513.919 378 517C377.865 500.681 369.226 485.582 352 483z"/>
<path style="fill:#080b0b; stroke:none;" d="M491 486C487.29 491.094 485.148 497.693 485 504C488.127 503.066 489.066 502.127 490 499C488.805 500.223 488.684 500.42 488 502C486.621 496.04 491.657 491.653 491 486M505 487C505 492.675 504.963 497.613 503 503L501 500C500.458 503.516 503.333 506.085 505.258 501.847C506.99 498.035 506.573 490.75 505 487z"/>
<path style="fill:#272a2a; stroke:none;" d="M209 490C207.999 497.417 213.558 501.319 219 505.37C230.429 513.879 243.184 522.02 257 526C254.461 522.279 249.711 521.498 246.039 519.038C240.384 515.249 235.306 509.396 230 505L232 505C226.701 498.588 217.003 492.311 209 490M579 502C582.836 503.331 586.953 501.134 591 501.015C600.491 500.737 612.308 504.183 621 500C618.544 495.547 614.633 496.135 610 495.579C599.729 494.348 588.601 498.758 579 502z"/>
<path style="fill:#080b0b; stroke:none;" d="M324 496C326.36 501.724 329.065 507.055 331 513C332.661 508.502 330.592 504.268 329 500C337.899 502.04 346.773 504.367 355 508.39C358.876 510.285 362.17 513.047 366 515C358.303 501.604 337.368 500.283 324 496z"/>
<path style="fill:#272a2a; stroke:none;" d="M423 505C422.323 514.316 413.616 520.643 412 530C415.501 529.141 417.308 530.794 420 533C417.098 532.818 414.743 531.959 412 531C420.564 541.282 428.969 520.352 435 515C432.563 523.207 425.408 528.66 423 537C426.345 536.068 429.932 538.076 432.914 536.84C437.75 534.837 442.303 527.698 446 524C443.424 529.422 439.657 534.255 436 539C436.472 540.416 436.814 540.814 438 542L443 539C442.402 537.805 442.534 538.023 441 537C448.364 531.75 447.174 527.023 448.3 519C448.69 516.222 450.169 512.863 448.306 510.314C446.835 508.3 444.197 508.086 442.209 506.841C439.772 505.315 438.455 502.55 435.896 501.182C433.383 499.839 430.638 500.583 428 499.862C424.643 498.944 421.783 495.556 418.039 496.661C411.185 498.683 403.27 511.442 401.656 518C400.824 521.379 403.026 528.399 407.802 526.694C410.695 525.661 411.95 521.411 413.337 519C416.029 514.32 419.238 508.83 423 505z"/>
<path style="fill:#080b0b; stroke:none;" d="M445 499C446.949 498.064 447.55 497.608 449 496C447.051 496.936 446.45 497.392 445 499M313 497C315.605 499.821 318.483 501.482 322 503C319.955 499.397 316.907 498.129 313 497M596 498C602.623 500.857 610.911 500 618 500C614.236 494.194 601.961 497.247 596 498M218 499C220.735 504.075 226.444 507.694 232 509C228.017 505.185 223.004 501.292 218 499M515 499C514.774 503.418 513.853 507.564 511 511C516.089 512.142 516.68 502.671 517 499L515 499z"/>
<path style="fill:#272a2a; stroke:none;" d="M1492 501C1492 507.166 1493.69 515.404 1489 520C1488.52 517.636 1488.36 517.482 1486 517C1487.16 520.819 1492.1 524.111 1494.4 518.852C1496.49 514.066 1495 506.168 1495 501L1492 501M1517 501C1517 505.339 1518.7 514.395 1514.68 517.338C1512.23 519.138 1509.61 517.41 1508.6 514.941C1507.1 511.234 1508 505.94 1508 502L1506 502C1506 506.785 1504.52 514.611 1507.03 518.852C1509.78 523.502 1516.47 522.226 1518.82 517.941C1521.32 513.376 1520 506.05 1520 501L1517 501M1529 501L1529 519L1523 517C1524.34 520.649 1529.06 524.197 1531.4 518.852C1533.49 514.064 1532 506.169 1532 501L1529 501M1536 501L1536 522L1539 522L1539 501L1536 501M1542 501L1542 504L1547 504L1547 522L1549 522L1549 504L1554 504L1554 501L1542 501M1556 516C1557.85 522.372 1568.28 524.351 1568.49 515.988C1568.62 511.214 1562.61 508.342 1560 505C1562.28 504.918 1563.83 505.278 1566 506C1565.75 501.05 1559.04 499.639 1557.75 505.055C1556.67 509.606 1562.45 511.04 1564.25 514.204C1566.64 518.43 1561.74 518.552 1559.16 517.404L1556 516M1571 501C1571 505.836 1569.84 512.417 1571.6 516.981C1573.52 521.943 1580.91 523.787 1583.97 518.772C1586.51 514.624 1585 506.714 1585 502L1583 502C1583 505.94 1583.9 511.234 1582.4 514.941C1581.39 517.41 1578.77 519.138 1576.32 517.338C1572.3 514.395 1574 505.339 1574 501L1571 501M203 502C200.613 504.277 197.587 505.216 195.039 507.302C189.277 512.022 182.235 521.324 179 528C187.249 524.362 190.787 516.43 196.754 510.13C199.537 507.191 203.028 505.577 205 502L203 502M1499 502L1499 522L1501 522L1501 502L1499 502z"/>
<path style="fill:#080b0b; stroke:none;" d="M420 503C418.39 504.328 417.299 505.383 416 507C418.383 506.147 420.086 505.651 420 503z"/>
<path style="fill:#272a2a; stroke:none;" d="M460 538C464.053 531.967 469.085 521.289 469.743 514C470.058 510.509 468.33 505.951 464.815 504.622C460.949 503.16 457.324 506.149 455.247 509.094C450.6 515.683 450.168 523.6 453.482 530.941C454.952 534.198 458.202 535.126 460 538M398 508L403 507C400.7 506.084 399.623 506.121 398 508z"/>
<path style="fill:#080b0b; stroke:none;" d="M454 516L462 509C461.684 511.51 461.919 512.71 463 515C454.992 515.624 454.781 526.808 462 529C462.214 522.396 466.978 517.964 465.852 511.019C465.236 507.22 461.801 505.1 458.471 507.747C456.001 509.71 454.896 513.123 454 516M430 513C433.057 511.815 434.904 510.518 437 508C433.665 508.875 431.773 510.022 430 513z"/>
<path style="fill:#272a2a; stroke:none;" d="M395 514L399 516L402 510C398.286 510.123 396.437 510.424 395 514M575 513C577.616 513.629 580.283 513.11 583 513L581 514C583.044 514.774 583.845 514.592 586 514C582.616 511.436 578.954 511.832 575 513M309 513C311.765 518.054 317.83 521.02 322 525C319.677 523.523 317.513 522.106 315 521C320.532 528.664 329.751 530.658 338 534.348C347.416 538.56 356.303 544.471 366 548C362.872 540.198 354.943 537.456 348 533.691C341.055 529.926 334.874 524.662 328 520.984C322.278 517.922 315.046 515.505 309 513z"/>
<path style="fill:#080b0b; stroke:none;" d="M502 514C506.68 521.391 514.827 525.99 514 536L512 536C509.393 531.164 503.602 526.661 498 527C502.105 532.111 507.194 536.537 512 541C508.274 539.303 503.916 536.117 500 538C508.786 542.09 525.694 547.756 531.107 535.776C532.182 533.398 531.979 530.542 532 528L530 528C529.886 532.695 529.195 535.551 525 538C523.396 526.892 512.547 516.506 502 514M529 515C531.249 520.346 534.685 525.467 540 528C536.841 523.375 533.443 518.429 529 515M353 516C356.088 519.187 359.854 521.431 364 523C361.002 519.382 357.498 517.324 353 516M442 521C444.687 519.676 445.676 518.687 447 516C444.313 517.324 443.324 518.313 442 521M523 516L526 526C527.363 522.156 525.722 518.817 523 516M488 520L487 524L485 521C484.014 522.479 484 522.203 484 524C487.271 524.503 489.138 523.468 488 520M403 522C404.26 523.951 405.019 524.84 407 526C405.846 523.751 405.249 523.154 403 522z"/>
<path style="fill:#272a2a; stroke:none;" d="M310 524C310.558 531.384 316.128 533.16 322 536.308C332.597 541.989 343.934 545.743 355 550.359C359.145 552.088 362.669 554.717 367 556C364.648 552.637 360.675 550.736 357 549C360.234 549.429 362.93 550.891 366 552C361.987 545.873 350.814 542.114 344 540L345 542C333.08 536.857 322.434 527.928 310 524z"/>
<path style="fill:#080b0b; stroke:none;" d="M546 529C547.809 529.574 548.069 529.465 550 529C549.487 534.834 546.965 539.07 544 544C549.985 540.889 552.359 532.401 553 526C550.433 526.739 548.327 527.682 546 529M378 533C382.519 537.759 391.814 540.736 398 543C393.142 537.142 385.044 535.261 378 533M535 537C538.514 535.662 541.292 535.748 545 536L545 534C540.678 533.83 537.355 532.834 535 537M493 536C492.043 537.517 491.613 538.338 491 540L492 541L494 541L495 540C494.436 538.248 494.081 537.458 493 536z"/>
<path style="fill:#272a2a; stroke:none;" d="M436 552C439.124 552.311 441.972 553.198 445 554C446.163 551.692 447.231 549.868 449 548L446 555L451 557C451.269 550.732 451.794 545.281 451 539C445.491 541.554 438.694 546.487 436 552z"/>
<path style="fill:#080b0b; stroke:none;" d="M536 539C535.014 540.479 535 540.203 535 542C536.289 540.557 536.401 540.766 536 539z"/>
<path style="fill:#272a2a; stroke:none;" d="M576 540C578.812 542.732 582.39 544.009 585 547L579 545C581.732 548.279 583.854 549.093 588 548C585.565 542.934 581.401 540.934 576 540z"/>
<path style="fill:#080b0b; stroke:none;" d="M345.667 542.333C345.222 542.778 346.278 542.722 346.333 542.667C346.778 542.222 345.722 542.278 345.667 542.333M369 544C373.202 549.441 379.39 552.43 386 554C381.723 549.677 374.679 546.149 369 544z"/>
<path style="fill:#272a2a; stroke:none;" d="M528 549C530.495 552.436 535.068 554.512 539 556C535.346 560.351 532.221 555.884 528 554C529.401 556.165 530.643 556.906 533 558C531.153 558.21 529.857 558.194 528 558C528.01 561.763 528.313 565.3 529 569C535.233 568.525 535.987 564.624 539.613 560.286C542.326 557.039 545.541 554.481 548 551C541.939 549.208 534.354 549.273 528 549M315 552L315 566C309.341 566 304.955 565.989 300 569C302.08 569.507 303.838 569.237 306 569C303.226 571.457 300.155 573.817 298.225 577.04C297.132 578.865 296.439 580.888 296.193 583C293.814 603.417 329.827 599.452 321.852 579C320.605 575.803 318.314 573.446 316 571L319 572C318.02 570.217 318.092 570.406 316 570C316.478 563.946 317 558.095 317 552L315 552M459 554C460.223 555.195 460.42 555.316 462 556C460.777 554.805 460.58 554.684 459 554M486 554C481.869 561.586 477.29 570.397 476 579C482.905 573.544 485.348 562.149 488 554L486 554z"/>
<path style="fill:#080b0b; stroke:none;" d="M432 558C433.579 560.605 435.057 561.219 438 562C436.12 560.091 434.458 559.089 432 558M423 563C424.223 564.195 424.42 564.316 426 565C424.777 563.805 424.58 563.684 423 563z"/>
<path style="fill:#272a2a; stroke:none;" d="M180 564C176.612 568.66 173.045 573.603 171 579C175.083 576.381 180.466 568.96 180 564z"/>
<path style="fill:#080b0b; stroke:none;" d="M446 565C446.684 566.58 446.805 566.777 448 568C447.316 566.42 447.195 566.223 446 565M416 566C416.739 568.567 417.682 570.673 419 573C419.505 569.93 418.151 568.152 416 566z"/>
<path style="fill:#272a2a; stroke:none;" d="M422 576C423.506 576.683 424.315 576.826 426 577C423.03 578.241 420.15 579.345 417 580C416.109 587.016 413.845 593.242 412 600C411.519 594.443 413.961 588.512 415 583C411.325 585.81 408.812 590.437 404 591C402.754 592.689 401.689 593.754 400 595L403 589L398 587C396.458 592.217 397.197 597.61 396.961 603C396.744 607.944 395.833 612.084 397 617C394.081 618.443 392.891 619.873 392 623C381.987 623.519 373.208 630.954 364 634.468C359.285 636.267 352.126 637.47 348.699 641.394C346.048 644.431 344.907 649.171 344 653C348.352 651.72 351.823 649.022 356 647.378C359.609 645.958 370.91 644.953 371.929 650.062C372.729 654.074 369.042 659.571 367.239 662.961C360.06 676.457 338.8 676.801 336 693C340.794 693.648 343.912 691.617 348 689.28C353.755 685.99 359.927 682.565 363.755 676.985C368.111 670.634 369.081 663.007 374 657C371.29 663.606 367.964 670.13 366 677C378.97 670.837 391.307 660.375 403 652C395.036 649.582 385.077 657.053 378 660C383.278 654.981 389.226 650.434 395 646C394.014 647.479 394 647.203 394 649C399.297 647.751 404.994 646.154 410 644L409 639C410.625 642.49 410.173 644.393 409 648C411.984 646.339 414.814 644.089 418 642.839C422.234 641.179 426.125 640.965 430 638.211C438.07 632.473 443.191 624.11 449.63 616.83C452.401 613.697 456.301 610.673 458.338 607.005C459.195 605.461 459.645 603.178 457.663 602.252C453.855 600.474 448.565 606.946 445 608C448.106 603.29 451.39 599.46 457 598C456.592 585.474 446.372 593.686 439 595C442.159 590.838 448.196 590.237 450.968 586.312C452.84 583.661 451.04 580.122 447.941 579.759C442.645 579.14 435.324 582.967 430 584C433.915 579.84 439.337 576.323 444 573C438.827 562.652 428.772 572.005 422 576z"/>
<path style="fill:#080b0b; stroke:none;" d="M436 569C436.545 570.635 436.365 570.455 438 571L438 569L436 569z"/>
<path style="fill:#272a2a; stroke:none;" d="M320 571C321.547 573.293 323.503 575.49 324.687 578.002C327.689 584.37 324.119 590.076 322 596C330.107 589.414 329.897 575.671 320 571M142 628C148.428 623.941 148.697 615.701 150.774 609C153.031 601.716 156.977 595.631 163 591C163.601 598.03 159.322 603.979 159 611C163.783 606.344 163.341 600.463 166.558 595.058C168.484 591.822 172.654 589.229 175.985 587.6C179.834 585.719 181.705 588.635 185.039 590.066C188.916 591.731 193.793 590.925 196.682 587.772C201.973 581.997 197.679 572.327 190 572.102C183.419 571.909 181.34 577.46 175.946 579.517C170.957 581.419 165.819 581.761 161 584.323C151.212 589.528 140.623 598.308 139.185 610C138.432 616.13 140.164 622.221 142 628M291 575C287.155 583.686 287.82 590.071 293 598C293.647 594.116 290.76 590.872 290.217 587C289.638 582.873 291.83 578.938 291 575M484 578C486.954 583.385 498.927 590.587 505 590C499.81 584.899 491.321 578.958 484 578M282 579C278.421 584.821 274.027 590.119 270.579 596C266.982 602.136 264.572 608.877 261.091 615C259.101 618.501 256.471 621.201 255 625C256.416 624.528 256.814 624.186 258 623C254.97 627.357 251.306 631.201 248.906 636C247.116 639.578 246.919 643.447 245 647C248.014 645.459 248.866 644.394 249 641C255.25 638.579 259.634 633.367 266 631L260 627C265.06 623.163 269.612 616.403 273 611C269.803 612.344 267.017 614.29 264 616C267.128 612.862 270.119 610.034 272 606L268 609C270.787 605.072 275.109 602.187 277.427 597.961C279.114 594.886 279.03 591.318 279.927 588C280.767 584.895 282.534 582.191 282 579M522 580C516.319 584.959 507.821 589.498 504 596C509.062 593.479 522.139 586.168 522 580z"/>
<path style="fill:#080b0b; stroke:none;" d="M423 582L419 588C421.75 586.563 423.44 585.221 423 582M424 597C428.503 594.528 429.095 589.364 434 587C427.586 584.594 425.187 592.004 424 597z"/>
<path style="fill:#272a2a; stroke:none;" d="M483 586C485.659 590.627 489.933 593.495 495 595C493.082 589.925 488.126 587.204 483 586z"/>
<path style="fill:#080b0b; stroke:none;" d="M436 590C434.084 592.616 432.311 595.041 431 598C433.85 595.877 436.5 593.744 436 590z"/>
<path style="fill:#272a2a; stroke:none;" d="M443 591L442 593L444 593C444 591.147 444.3 591.65 443 591M614 591L614 593L617 593L617 591L614 591M190 593C188.94 596.665 187.639 600.24 187 604C189.836 601.01 191.435 597.011 190 593M594 593C593.796 594.25 593.268 595.708 593.782 596.986C596.532 603.835 604.239 597.718 597.102 593.743C596.192 593.236 594.962 593.196 594 593M500 603C502.032 607.521 504.66 610.881 505 616C507.206 613.201 507.627 609.725 510 607C509.672 613.066 505.885 616.55 504 622L508 621L509 627C514.966 627.261 519.383 631.348 525 633L523 628C531.456 632.433 552.802 642.733 553 626C564.521 630.47 576.425 640.47 589 640.96C604.904 641.579 596.641 623.725 588 619L590 624C586.35 627.461 595.591 629.377 590.743 633.401C587.41 636.167 581.618 634.337 578 633.1C568.105 629.715 558.662 626.023 549 622C550.984 632.892 543.338 632.555 535 629.046C527.584 625.924 524.628 621.879 524 614L521 614C520.804 610.363 520.009 608.041 518 605C519.451 604.749 519.752 604.685 521 604C519.047 601.109 517.3 600.082 514 599C520.119 597.344 523.278 603.508 529 605L529 600C530.343 601.904 530.819 602.718 531 605C537.386 605.197 541.438 609.881 548 608C544.329 601.003 532.141 598.585 525 596.625C521.546 595.677 518.711 593.778 515 594.632C509.563 595.883 504.678 600.124 500 603z"/>
<path style="fill:#080b0b; stroke:none;" d="M437 603C439.08 601.158 440.509 599.35 442 597C439.082 598.517 438.078 599.893 437 603M410 600C407.75 605.403 404.438 610.298 403 616C406.928 613.145 411.323 604.82 410 600M427 600C421.809 606.834 422 612.742 422 621C424.778 616.933 423.239 612.527 424.509 608C425.324 605.096 427.263 603.024 427 600z"/>
<path style="fill:#272a2a; stroke:none;" d="M467 604C473.054 605.385 478.418 608.888 483 613C476.006 611.4 470.76 606.154 464 604C462.233 611.317 469.164 613.802 473 619C467.895 617.036 464.02 613.122 459 611L458 612C458 613.797 458.014 613.521 459 615C455.65 618.261 460.898 623.905 463 627C459.979 627.651 459.914 628.914 462 631C459.026 635.246 458.494 643.859 459.211 649C460.36 657.244 467.248 662.847 469.54 670.714C471.388 677.058 471.822 686.342 471.985 693C472.149 699.677 471.367 705.42 477 710L477 708C479.916 710.865 483.073 713.389 485 717C483.814 715.814 483.416 715.472 482 715C484.277 720.519 487.424 725.147 489 731C483.632 722.533 480.589 714.067 472 708C472.038 721.962 471.567 742.106 488 747C486.183 741.227 485.017 736.084 485 730C486.917 735.662 487.547 741.48 490 747C491.926 746.102 493.404 745.283 495.021 743.851C497.323 741.813 500.328 739.096 501.125 736C502.423 730.957 497.064 723.114 496 718C499.187 722.233 502.396 725.58 503 731L505 731L504 725C508.273 722.23 509.558 712.005 509.91 707C510.557 697.819 506.333 692.12 502.872 684C500.508 678.454 499.162 672.629 497.088 667C495.564 662.864 493.304 658.487 493.194 654C492.888 641.526 500.438 630.299 501 618C499.7 618.65 500 618.147 500 620C500.213 617.696 501.391 615.317 501.31 613.003C501.105 607.109 495.434 607.016 491 607C495.563 613.061 495.401 615.419 492 622C492.435 619.053 494.647 615.154 492.954 612.302C490.459 608.102 482.061 607.47 478 605.215C475.791 603.989 473.66 602.139 471.059 601.85C468.968 601.617 468.13 602.542 467 604z"/>
<path style="fill:#080b0b; stroke:none;" d="M438 608C441.273 606.44 443.687 604.794 446 602C442.533 603.318 439.942 604.801 438 608z"/>
<path style="fill:#272a2a; stroke:none;" d="M611 602L611 604L615 604L615 602L611 602z"/>
<path style="fill:#080b0b; stroke:none;" d="M417 607L413 615C415.789 612.79 417.962 610.672 417 607M432 607L426 616C429.664 614.285 434.316 611.299 432 607z"/>
<path style="fill:#272a2a; stroke:none;" d="M525 610C525.32 611.076 525.432 613.18 527 613.5C529.758 614.063 531.844 611.466 528 611L531 609C528.57 608.142 527.28 608.817 525 610z"/>
<path style="fill:#080b0b; stroke:none;" d="M517 610C515.242 612.012 514.084 613.581 513 616L521 618C520.388 614.618 519.433 612.435 517 610M418 611L418 613L420 613L420 611L418 611z"/>
<path style="fill:#272a2a; stroke:none;" d="M580 612C581.836 614.447 583.237 615.701 586 617C584.164 614.553 582.763 613.299 580 612z"/>
<path style="fill:#080b0b; stroke:none;" d="M481 614C482.128 617.871 482.272 620.997 482 625C488.105 622.546 485.64 616.708 481 614z"/>
<path style="fill:#272a2a; stroke:none;" d="M603 614C603.102 617.226 604.215 619.874 604.669 623C605.593 629.361 605.159 633.407 613 634C612.055 627.732 608.64 617.277 603 614M448 627C451.193 626.908 453.899 627.254 457 628C456.81 625.029 456.166 622.74 455 620C451.499 621.649 449.649 623.499 448 627z"/>
<path style="fill:#080b0b; stroke:none;" d="M472 621L473 631C475.147 627.414 475.783 623.455 472 621M512 623C514.721 625.731 517.245 625.734 521 626C518.649 622.74 515.825 623.014 512 623M418 624L415 627C417.741 627.401 418.653 626.343 420 624L418 624M487 627C486.327 630.625 486.222 634.459 485.211 638C483.53 643.892 477.702 651.906 484 657C483.378 653.646 482.702 650.372 483.638 647C485.518 640.23 490.036 634.234 487 627z"/>
<path style="fill:#272a2a; stroke:none;" d="M268 629C271.349 630.405 274.564 630.015 278 629C274.751 627.732 271.432 628.729 268 629z"/>
<path style="fill:#080b0b; stroke:none;" d="M387 628L374 643C379.328 640.934 387.854 634.37 387 628z"/>
<path style="fill:#272a2a; stroke:none;" d="M450 630C451.71 635.133 455.665 633.395 457 629C454.323 628.831 452.536 629.116 450 630z"/>
<path style="fill:#080b0b; stroke:none;" d="M430 630C427.073 635.349 421.048 636.112 418 641C424.087 638.921 429.516 636.184 432 630L430 630M491 634C492.457 632.896 492.897 632.457 494 631C491.876 631.899 491.899 631.876 491 634z"/>
<path style="fill:#272a2a; stroke:none;" d="M156 635C157.58 634.316 157.777 634.195 159 633C157.42 633.684 157.223 633.805 156 635M443 636C445.739 635.789 446.422 635.698 447 633C444.868 633.776 444.229 634.13 443 636z"/>
<path style="fill:#080b0b; stroke:none;" d="M477 633C477.221 636.478 478.304 639.61 479 643C480.527 639.353 480.356 635.371 477 633z"/>
<path style="fill:#272a2a; stroke:none;" d="M163 634L162 636L164 636C164 634.147 164.3 634.65 163 634z"/>
<path style="fill:#080b0b; stroke:none;" d="M387 638C390.508 638.74 394.35 637.167 398 637L398 635C394.002 635.327 390.586 636.2 387 638z"/>
<path style="fill:#272a2a; stroke:none;" d="M144 640C141.424 642.897 139.767 645.183 139 649C147.257 646.621 152.565 640.728 160 637C154.079 635.376 149.97 642.47 144 640z"/>
<path style="fill:#080b0b; stroke:none;" d="M489 638C486.926 644.824 487 651.924 487 659C489.262 653.66 490.352 643.629 489 638z"/>
<path style="fill:#272a2a; stroke:none;" d="M258 667C266.639 660.898 273.802 653.091 283 647.468C287.86 644.496 294.772 643.924 298 639C281.976 639.044 264.664 652.624 258 667z"/>
<path style="fill:#080b0b; stroke:none;" d="M373 656C376.317 652.19 377.358 646.454 380 642C374.848 644.702 373.8 650.562 373 656M350 648C353.085 646.803 356.081 645.556 359 644C355.292 642.983 352.043 644.885 350 648M476 644C476 647.801 475.919 651.343 477 655C478.549 651.307 478.258 647.305 476 644z"/>
<path style="fill:#272a2a; stroke:none;" d="M338 678C342.534 677.406 345.916 675.065 350 673.159C361.509 667.787 369.895 661.509 371 648C361.909 648 350.36 647.6 343.938 655.637C339.847 660.756 338.82 671.649 338 678M433 650C429.446 652.342 426.216 654.239 422 655C420.312 662.102 415.739 667.401 413 674C415.556 675.791 419.461 680.59 422.907 679.654C425.711 678.892 427.502 675.189 429.025 673C432.342 668.231 440.433 660.361 433 656C434.178 653.372 434.482 652.469 433 650M524 651C522.988 653.373 522.378 655.449 522 658C524.661 656.122 525.177 654.037 524 651M420 653C415.379 656.552 410.59 660.219 405 662L404 673C410.064 671.298 413.405 665.974 418 662L417 658C418.479 658.986 418.203 659 420 659C420.529 656.647 420.811 655.239 420 653M148 658C150.961 658.623 152.127 657.267 154 655L148 658z"/>
<path style="fill:#080b0b; stroke:none;" d="M463 655C464.898 659.059 468.109 661.654 471 665L473 665L476 661C477.508 663.268 478.658 664.637 481 666C479.291 662.388 475.478 657.673 472 662L463 655z"/>
<path style="fill:#272a2a; stroke:none;" d="M136 666C140.366 663.124 144.796 660.152 148 656C142.43 657.407 136.986 659.903 136 666M523 660C521.863 662.645 521.482 663.576 523 666C521.964 667.186 521.661 667.604 521 669C522.58 669.683 522.777 669.805 524 671C525.549 667.307 525.258 663.305 523 660z"/>
<path style="fill:#080b0b; stroke:none;" d="M348 661C347.11 662.745 346.547 664.125 346 666C350.053 666.607 351.199 664.845 352 661C350.488 662.653 349.819 663.894 349 666L348 661M408 665C410.485 663.987 411.598 663.274 413 661C410.363 661.939 409.382 662.58 408 665M427 664C428.923 663.098 428.999 662.924 430 661C428.078 661.901 428.001 662.076 427 664M372 667C375.944 667.656 379.565 664.807 383 663C379.088 662.085 375.332 665.037 372 667z"/>
<path style="fill:#272a2a; stroke:none;" d="M136 667L133 674C135.578 671.918 136.788 670.087 138 667L136 667z"/>
<path style="fill:#080b0b; stroke:none;" d="M490 667C490.221 670.006 490.455 671.365 493 673C492.403 670.579 491.567 668.943 490 667M365 668L358 680C361.956 677.83 366.097 672.693 365 668M485 699C483.494 693.481 481.166 688.281 479 683L483 685C480.945 679.82 477.097 675.458 476 670C474.236 671.001 472.784 671.672 472.962 674.059C473.174 676.891 475.402 679.536 476.63 682C479.231 687.22 480.083 695.635 485 699z"/>
<path style="fill:#272a2a; stroke:none;" d="M402 687C405.733 686.967 408.619 686.628 412 685C408.773 690.91 401.545 689.388 400 697C402.304 695.434 403.451 694.687 404 692C408.369 691.761 411.281 690.205 415 688C413.217 684.997 411.683 682.44 411 679C404.364 679.023 402.082 680.068 402 687M123 680C120.906 683.021 118.547 685.661 117 689C120.542 686.497 123.159 683.946 125 680L123 680M524 681L531 693C533.222 687.292 529.556 682.354 524 681z"/>
<path style="fill:#080b0b; stroke:none;" d="M494 687C493.788 691.922 492.694 696.386 491 701C495.274 698.072 495.924 691.587 494 687M497 688C496.73 700.68 484.966 710.214 488 723C489.327 719.845 489.249 716.298 490.395 713C492.804 706.072 502.257 694.984 497 688M487 705C486.796 708.201 485.953 710.949 485 714C487.746 711.311 488.502 708.622 487 705M505 707L504 711C505.656 709.596 505.751 709.046 505 707z"/>
<path style="fill:#272a2a; stroke:none;" d="M288 726C291.358 731.55 299.708 737.505 306 739C301.441 734.012 294.415 728.177 288 726z"/>
<path style="fill:#080b0b; stroke:none;" d="M490 726C490.823 728.951 491.514 731.172 494 733C493.359 729.79 492.458 728.156 490 726z"/>
<path style="fill:#272a2a; stroke:none;" d="M312 730C315.191 733.656 319.265 735.185 324 736C320.518 733.002 316.489 730.972 312 730M336 736C338.938 741.611 343.172 745.653 345 752C347.888 750.092 352.169 743.241 348.393 740.179C345.657 737.961 339.434 737.523 336 736M300 831C300 818.545 301.649 806.363 302.83 794C303.306 789.026 302.517 783.943 303.325 779C304.106 774.221 306.19 769.768 307 765C302.477 770.485 302.596 777.374 301 784C296.81 764.662 318.179 745.556 336 744C336 742.203 335.986 742.479 335 741C328.417 743.191 319.807 744.822 314.039 748.727C298.881 758.99 292.384 779.963 289.725 797C288.458 805.122 286.665 812.714 286.245 821C286.124 823.386 285.585 828.259 287.639 829.972C290.314 832.204 296.723 831 300 831M354 741C353.3 749.505 347.917 754.456 345 762L354 758C353.043 759.517 352.613 760.338 352 762C357.169 758.578 360.995 755.324 362 749C359.636 749.482 359.482 749.636 359 752C355.679 748.748 356.673 744.527 354 741M365 745C368.628 749.577 372.412 749.984 378 750L378 748C373.271 747.889 369.478 746.277 365 745M335 746C329.627 753.021 319.48 755.616 315 763C318.2 761.654 320.873 759.536 324 758.049C329.657 755.358 337.112 753.531 337 746L335 746M466 749L467 753C467.553 750.992 467.303 750.668 466 749M365 753C366.737 755.875 369.448 757.536 371.61 760.093C375.504 764.697 378.603 771.171 380 777C372.82 773.532 369.075 766.689 363 762C365.163 767.623 369.427 771.892 372.536 777C376.456 783.44 378.405 790.522 379 798L392 796C390.651 788.064 386.724 781.163 383.258 774C381.036 769.407 379.373 764.954 375.985 761.039C372.908 757.483 369.885 753.213 365 753M336 758C337.506 758.683 338.315 758.826 340 759C339.014 760.479 339 760.203 339 762C341.298 760.204 342.744 758.633 344 756C341.068 756.254 338.71 756.851 336 758M227 797C215.348 791.815 208.084 781.837 194 786C199.001 788.555 204.155 790.43 209 793.424C217.663 798.779 224.45 805.94 235 804C234.594 801.908 234.783 801.98 233 801C234.479 800.014 234.203 800 236 800C234.309 795.491 239.902 790.838 237.338 787.404C235.694 785.202 232.335 784.345 230 783.111C224.642 780.279 219.518 776.836 214 774.325C212.025 773.426 206.469 771.169 206.117 775.123C205.777 778.95 211.368 781.29 214.001 782.781C220.195 786.287 224.507 790.276 227 797M95 782C94.7504 786.873 92.9828 791.275 91.8873 796C89.8551 804.765 88.6125 814.043 84.2037 822C81.0856 827.628 74.7894 831.984 72.6026 838C71.0514 842.268 72.4777 847.524 72 852L76 851C69.4737 857.544 65.2801 864.895 59.6975 872.001C56.1632 876.499 51.8348 879.743 48.696 884.551C45.6753 889.178 40.8541 890.784 42 897C43.811 896.358 45.0922 896.051 47 896C48.7714 891.485 51.6174 888.421 55 885C56.0625 886.6 55.8838 886.281 58 886C54.4503 889.103 51.0312 891.68 49 896C51.2789 896.745 53.0055 897.666 55 899C58.5384 890.848 65.2223 885.98 69 878C68.2994 881.967 65.7511 884.907 66 889C62.1216 890.814 59.8142 893.122 58 897C64.6749 899.074 59.2218 901.862 55 902C56.7143 904.789 59.5983 906.449 62.4545 903.642C67.9453 898.246 69.2968 890.804 76 886C75.4549 887.635 75.6352 887.455 74 888C74 889.797 74.0143 889.521 75 891C70.2818 893.348 65.1913 899.177 71 903C69.1501 903.202 67.8499 903.202 66 903C67.8136 906.286 71.1407 908.051 74.581 905.257C77.0843 903.224 77.6819 899.561 79.51 897C82.9068 892.242 87.6419 886.863 92 883C90.8137 884.186 90.4721 884.584 90 886L92 886C89.1962 888.903 86.9352 890.899 87 895L84 898C87.0914 899.309 90.6719 899.382 94 900C91.9454 897.091 89.4352 897.083 86 897C91.1298 895.544 95.8789 896.928 95 903C90.6036 900.101 87.0115 900.563 82 900C79.5484 909.233 94.5244 911.174 99.3966 905.566C102.064 902.496 100.839 897.525 100 894C101.666 895.446 103.119 896.87 105 898C106.337 890.69 104.114 885.555 101 879L103 880C102.738 877.572 102.738 875.428 103 873C104.635 873.545 104.455 873.365 105 875C105.858 872.57 105.183 871.28 104 869C106.605 868.575 106.51 865.531 107 863C105.733 864.543 105.511 865.048 105 867L102 861L106 862C103.749 854.785 104.057 847.53 104 840C105.68 844.964 105.997 849.789 106 855C113.711 849.386 111.04 842.232 113 834C111.604 834.661 111.186 834.964 110 836C110.071 826.874 117.886 818.394 121 810C117.892 810.662 118.234 812.292 116.528 814.778C112.411 820.773 108.727 826.788 107 834C105.89 821.475 119.308 812.893 110.257 801.055C108.977 799.381 107.648 798.272 106 797L111 808C107.173 802.98 104.975 794.647 100 791C99.3037 798.925 95.5319 806.516 93 814C92.8999 805.525 98.5677 798.423 99 790C97.7003 790.65 98 790.147 98 792C97.9429 787.692 98.2764 785.17 95 782M182 804C182.462 808.332 182.012 812.648 182 817C183.635 816.455 183.455 816.635 184 815C186.006 816.156 185.803 816.629 187 815L190 818C187.192 821.014 186.154 825.402 184 829C188.318 826.736 188.97 822.505 192.144 819.033C195.752 815.088 200.976 812.62 205 809C205.613 810.661 206.043 811.483 207 813C208.567 812.302 209.286 812.126 211 812C211.499 809.535 212.851 806.56 212.129 804.043C210.324 797.752 200.963 796.945 198 791C195.49 791.023 192.602 790.777 190.38 792.179C186.322 794.738 185.477 800.701 182 804M508 797C508.598 798.195 508.466 797.977 510 799C502.802 801.265 501.19 805.811 501 813C500.278 810.582 500.052 808.528 500 806L498 806C497.712 812.309 494.686 817.103 498 823C498.734 820.005 498.091 817.615 500 815C499.259 818.963 500.343 822.104 501 826C504.673 824.487 508.089 822.593 512 821.679C514.176 821.17 517.456 821.326 518.972 819.397C520.62 817.301 519.999 813.477 520 811C520.003 805.239 519.945 799.681 521 794C519.076 795.001 518.902 795.077 518 797C518.408 794.484 519.502 793.124 521 791C516.456 792.525 512.142 794.591 508 797z"/>
<path style="fill:#080b0b; stroke:none;" d="M505 802C509.204 803.153 513.414 800.093 517 798C512.891 797.316 508.77 800.43 505 802z"/>
<path style="fill:#272a2a; stroke:none;" d="M382 806C386.574 805.043 391.326 804.079 394 800C389.408 800.96 384.544 801.797 382 806z"/>
<path style="fill:#080b0b; stroke:none;" d="M510 805C510.344 809.359 510.976 813.748 512 818C513.393 814.116 512.474 808.261 510 805z"/>
<path style="fill:#272a2a; stroke:none;" d="M382 813C386.551 812.028 393.348 810.715 395 806C390.05 806.607 383.668 807.851 382 813M494 807L494 816C495.731 813.111 495.929 810.339 496 807L494 807M593 829C595.56 848.824 605.655 867.605 610.474 887C611.969 893.018 614.747 905.153 607.891 908.971C603.511 911.411 598.57 908.464 595 905.956C586.297 899.842 578.988 887.966 579.083 877C579.12 872.76 583.253 867.382 581.381 863.322C578.018 856.027 569.596 869.185 568.479 872C562.573 886.885 570.532 906.627 582.015 916.561C584.784 918.957 587.739 921.315 591 923.005C593.374 924.235 596.459 924.862 597.972 927.278C600.407 931.165 599 938.566 599 943L601 943C601 936.693 600.814 930.997 603 925L605 925C608.161 938.278 603.147 952.964 607 966C611.993 961.11 609.399 954.161 608.439 948C607.523 942.12 607.82 935.839 608.889 930.001C609.935 924.288 614.049 922.816 617.61 918.816C621.125 914.865 624.376 908.282 624.895 903C626.951 882.06 618.792 863.375 612.333 844C610.78 839.34 609.104 834.701 607.675 830.001C607.141 828.243 606.011 825.409 607.677 823.89C611.443 820.458 612.665 830.231 613 832C614.711 828.781 614.439 825.383 615.58 822C616.916 818.042 621.422 812.632 617.397 808.603C614.627 805.832 609.206 807.13 606 808.244C597.872 811.068 590.242 815.026 582 817.656C577.786 819.001 571.796 819.092 568.214 821.742C564.341 824.606 562.362 831.998 568.109 834.017C571.382 835.167 575.768 833.749 579 832.961C583.759 831.801 588.127 829.72 593 829M473 808C479.887 817.786 489.216 825.073 496 835C497.459 830.736 494.394 827.208 491.703 824C486.316 817.577 480.725 811.526 473 808M492 809L492 813C490.889 811.258 490.73 810.881 489 810C489.651 812.434 490.16 813.283 492 815C492.687 812.58 492.922 811.323 492 809M384 821C388.38 820.41 392.564 819.193 397 819L397 814C392.18 814.722 385.74 815.997 384 821M531 837C531.632 844.233 534.734 851.198 537.142 858C540.657 867.929 544.094 877.874 547 888C548.824 894.355 552.269 903.379 550.424 909.996C546.454 924.232 531.03 912.101 525.819 905.911C521.038 900.229 516.57 890.645 517.172 883C517.555 878.134 519.954 874.074 520 869C510.386 869.312 505.25 877.994 505.015 887C504.658 900.646 509.438 914.449 520.015 923.56C523.322 926.41 526.948 928.971 531 930.648C533.743 931.783 537.377 931.903 539.397 934.317C544.465 940.376 537.363 950.212 542 957C544.624 948.122 539.812 937.491 548 931C549.58 943.499 549.294 956.396 548.985 969C548.832 975.256 547.517 980.77 549 987C553.062 984.76 553.145 981.415 552.961 977C552.609 968.585 551 960.507 551 952C551 945.23 550.047 937.413 552.699 931C556.093 922.792 562.159 917.278 563.675 908C565.804 894.974 560.736 881.162 556.667 869C553.523 859.602 549.822 850.393 546.667 841C545.028 836.117 543.264 832.128 549 830C549.109 832.442 549.428 834.623 550 837C551.145 834.451 551.253 831.601 552.418 829.039C554.051 825.448 558.79 821.659 555.968 817.318C553.628 813.718 547.344 814.989 544 816.105C535.894 818.811 528.178 822.69 520 825.329C515.729 826.708 510.028 826.789 506.214 829.164C502.31 831.596 500.518 838.287 505.148 840.968C511.709 844.768 523.986 837.612 531 837z"/>
<path style="fill:#080b0b; stroke:none;" d="M86.3333 821.667C86.2777 821.722 86.2223 822.778 86.6667 822.333C86.7221 822.278 86.7778 821.222 86.3333 821.667z"/>
<path style="fill:#272a2a; stroke:none;" d="M437 908C442.581 906.175 455.606 906.705 459 912C460.396 911.339 460.814 911.035 462 910C464.944 922.367 461.11 935.825 464 948L466 948C467.429 943.154 466.255 938.929 466.039 934C465.801 928.562 466.514 923.387 466.911 918C467.297 912.766 467.377 907.35 474 909C476.375 904.354 480.701 902.605 485 899.936C491.076 896.164 497.147 891.888 501.363 886C502.875 883.888 504.177 881.455 505.034 879C512.791 856.782 480.526 859.914 468 863C471.279 860.894 474.805 859.205 478 856.956C479.746 855.727 481.429 854.404 482.956 852.907C487.191 848.754 490.364 841.878 482.981 839.032C473.393 835.337 461.112 836.784 451 834.116C446.53 832.936 441.922 831.548 438 829.031C433.64 826.233 429.721 820.203 424.174 824.037C414.355 830.825 423.593 840.863 426.333 849C428.14 854.368 431.373 861.276 431.258 867C431.179 870.917 427.809 873.913 428.283 877.941C428.83 882.587 434.878 882.347 436.276 887.019C438.346 893.933 434.928 900.992 437 908M385 829C389.857 828.6 394.207 826.587 399 826L399 823C393.818 823.223 386.907 823.437 385 829z"/>
<path style="fill:#080b0b; stroke:none;" d="M84 826C81.4862 831.215 79.8876 837.464 78 843C82.3113 839.495 85.9611 831.528 84 826z"/>
<path style="fill:#272a2a; stroke:none;" d="M387 836C391.82 835.278 396.324 833.353 401 832L401 830C396.663 828.947 388.355 831.367 387 836M389 849C397.22 847.585 403.658 845.077 402 836C398.15 836.2 390.413 837.312 388.643 841.418C387.697 843.612 388.716 846.737 389 849M299 860C300.28 856.712 302.107 853.967 304 851C298.171 853.279 291.588 853.946 286 856.67C281.313 858.954 277.721 862.838 273 865C273.021 867.849 273.19 870.271 274 873C280.215 871.845 287.186 872.588 293 871L294 874C299.606 870.883 305.848 872.99 312 873C318.285 873.01 323.87 871.472 330 871.054C336.055 870.641 341.967 871.95 348 872C347.947 868.553 348.45 865.389 349 862L351 865C352.731 861.364 354.627 857.779 356 854C346.848 852.885 342.307 851.769 334 857L340 850C337.215 850.058 334.709 850.352 332 851L338 847C334.719 845.344 331.177 844.333 328 842.453C325.367 840.895 322.327 838.105 319.004 838.817C314.464 839.79 311.942 845.552 309.49 848.957C306.53 853.066 302.381 856.219 299 860z"/>
<path style="fill:#080b0b; stroke:none;" d="M81 842C78.4552 844.564 76.0758 847.048 74 850C77.4352 848.393 81.0863 846.074 81 842z"/>
<path style="fill:#272a2a; stroke:none;" d="M534 865L527 843C523.729 843.677 519.019 844.145 516.604 846.703C513.777 849.697 515.463 860.343 518.589 862.836C522.148 865.673 529.665 864.693 534 865z"/>
<path style="fill:#080b0b; stroke:none;" d="M98 848C99.2227 849.195 99.42 849.316 101 850C99.7772 848.805 99.5801 848.684 98 848M443 848C443.409 852.691 444.58 857.519 446 862C452.21 859.449 458.374 856.68 464 853C460.621 850.44 456.428 850.256 454 854C452.977 852.466 453.195 852.598 452 852L449 855L449 849L443 848z"/>
<path style="fill:#272a2a; stroke:none;" d="M505 848C505.545 849.635 505.365 849.455 507 850L507 848L505 848M555 849C557.112 856.738 561.296 863.932 562 872C566.084 869.006 569.089 862.276 572 858L555 849z"/>
<path style="fill:#080b0b; stroke:none;" d="M519.667 850.333C519.222 850.778 520.278 850.722 520.333 850.667C520.778 850.222 519.722 850.278 519.667 850.333M517 851C517.98 852.783 517.908 852.594 520 853C518.861 851.985 518.389 851.691 517 851M100 853C99.0003 860.911 98.022 869.019 98 877L100 877C101.201 870.905 103.634 858.217 100 853M325 856L325 864C326.314 863.232 326.232 863.314 327 862L332 863L325 856M351 857L350 861C351.303 859.332 351.553 859.008 351 857M523 858C525.346 860.73 527.551 861.975 531 863C529.007 860.257 526.163 859.137 523 858M93.6667 862.333C93.2222 862.778 94.2778 862.722 94.3333 862.667C94.7777 862.222 93.7222 862.278 93.6667 862.333M70 870C72.4187 868.916 73.9878 867.758 76 866L73 874C75.881 871.149 77.4484 867.725 79 864C74.6524 864.149 72.0354 866.205 70 870z"/>
<path style="fill:#272a2a; stroke:none;" d="M590 863C591.573 865.719 592.925 866.373 596 867C594.386 864.786 592.548 864.034 590 863z"/>
<path style="fill:#080b0b; stroke:none;" d="M84 864C80.5912 869.989 77.2258 876.474 75 883C80.3933 881.258 84.9437 869.387 84 864z"/>
<path style="fill:#272a2a; stroke:none;" d="M587 865C586.453 868.52 585.119 871.636 584 875C589.53 875 599.915 876.246 598 868C593.124 868.848 590.874 867.989 587 865z"/>
<path style="fill:#080b0b; stroke:none;" d="M67 868C65.7386 870.01 64.8102 871.778 64 874C66.1529 872.115 67.4096 870.888 67 868M343 868L343 870L345 870L345 868L343 868M308 870C312.448 871.867 317.351 870.588 322 870C317.615 868.16 312.569 869.152 308 870M471 875L470 889L468 889C468 884.43 469.224 878.739 465 876L465 885L462 885L462 878C458.994 878 454.121 877.17 451.604 879.179C449.594 880.783 450.222 883.814 450.596 885.997C451.802 893.05 457.488 894.428 464 893.829C471.638 893.127 479.313 890.395 485.999 886.687C488.48 885.311 492.364 883.299 492.364 879.979C492.364 871.186 475.875 874.615 471 875M57 880C56.0143 881.479 56 881.203 56 883C57.2892 881.557 57.4009 881.766 57 880M87 880L84 889C87.1244 886.868 88.0217 883.573 89 880L87 880M76 889C77.2484 889.685 77.5484 889.749 79 890C77.7517 889.315 77.4515 889.251 76 889M92 890C91.7723 892.121 91.8495 891.89 90 893C93.1304 893.864 96.6864 892.949 100 893C97.4603 890.807 95.3354 890.221 92 890z"/>
<path style="fill:#272a2a; stroke:none;" d="M42 898L42 900L45 900L45 898L42 898M48 898C49.2483 898.685 49.5485 898.749 51 899L47 901C49.0132 902.225 50.6586 902.645 53 903C52.272 899.649 51.403 898.588 48 898M56 899L56 901L61 901L61 899L56 899z"/>
<path style="fill:#080b0b; stroke:none;" d="M71 899C72.2323 900.781 73.1415 901.94 75 903C74.1613 900.374 73.6265 899.839 71 899z"/>
<path style="fill:#272a2a; stroke:none;" d="M473 912C472.276 915.04 472.026 917.878 472 921C473.979 918.103 474.355 915.261 473 912z"/>
</svg>
